<svg width="1182" height="982" viewBox="0 0 1182 982" fill="none" xmlns="http://www.w3.org/2000/svg">
<path fill-rule="evenodd" clip-rule="evenodd" d="M891.293 219.038C938.047 219.038 975.949 181.142 975.949 134.394C975.949 87.6466 938.047 49.75 891.293 49.75C844.538 49.75 806.636 87.6466 806.636 134.394C806.636 181.142 844.538 219.038 891.293 219.038Z" fill="#F2F2F2"/>
<path fill-rule="evenodd" clip-rule="evenodd" d="M891.292 72.1087C893.939 72.1087 896.084 69.9637 896.084 67.3175C896.084 64.6714 893.939 62.5264 891.292 62.5264C888.646 62.5264 886.5 64.6714 886.5 67.3175C886.5 69.9637 888.646 72.1087 891.292 72.1087Z" fill="black" fill-opacity="0.1"/>
<path fill-rule="evenodd" clip-rule="evenodd" d="M824.206 139.185C826.853 139.185 828.998 137.04 828.998 134.394C828.998 131.747 826.853 129.603 824.206 129.603C821.559 129.603 819.414 131.747 819.414 134.394C819.414 137.04 821.559 139.185 824.206 139.185Z" fill="black" fill-opacity="0.1"/>
<path fill-rule="evenodd" clip-rule="evenodd" d="M958.379 139.185C961.026 139.185 963.171 137.04 963.171 134.394C963.171 131.747 961.026 129.603 958.379 129.603C955.732 129.603 953.587 131.747 953.587 134.394C953.587 137.04 955.732 139.185 958.379 139.185Z" fill="black" fill-opacity="0.1"/>
<path fill-rule="evenodd" clip-rule="evenodd" d="M891.292 206.262C893.939 206.262 896.084 204.117 896.084 201.471C896.084 198.825 893.939 196.68 891.292 196.68C888.646 196.68 886.5 198.825 886.5 201.471C886.5 204.117 888.646 206.262 891.292 206.262Z" fill="black" fill-opacity="0.1"/>
<path fill-rule="evenodd" clip-rule="evenodd" d="M891.292 76.9004L894.487 132.797H888.098L891.292 76.9004Z" fill="#AFB9C5"/>
<path fill-rule="evenodd" clip-rule="evenodd" d="M919.563 162.659L890.197 137.815L894.714 133.299L919.563 162.659Z" fill="#AFB9C5"/>
<path fill-rule="evenodd" clip-rule="evenodd" d="M891.293 140.782C894.821 140.782 897.682 137.922 897.682 134.394C897.682 130.866 894.821 128.006 891.293 128.006C887.764 128.006 884.903 130.866 884.903 134.394C884.903 137.922 887.764 140.782 891.293 140.782Z" fill="#C5CFD6"/>
<g opacity="0.345889">
<path fill-rule="evenodd" clip-rule="evenodd" d="M801.514 578.992C790.5 455.94 199.604 218.438 89.9072 334.99C-19.7904 451.542 85.6702 670.28 315.555 726.292C545.442 782.305 812.526 702.044 801.514 578.992Z" fill="#F2F2F2"/>
<path fill-rule="evenodd" clip-rule="evenodd" d="M436.292 658.945C446.157 554.408 975.456 352.641 1073.72 451.657C1171.98 550.671 1147.11 758.939 941.188 806.523C735.266 854.109 426.427 763.482 436.292 658.945Z" fill="#DDE3E9"/>
</g>
<path fill-rule="evenodd" clip-rule="evenodd" d="M118.998 248.861C156.49 248.861 186.884 232.774 186.884 212.927C186.884 193.082 156.49 176.993 118.998 176.993C81.5065 176.993 51.1133 193.082 51.1133 212.927C51.1133 232.774 81.5065 248.861 118.998 248.861Z" fill="#F2F2F2"/>
<path fill-rule="evenodd" clip-rule="evenodd" d="M198.065 237.681C198.065 193.58 162.665 157.828 118.998 157.828C75.3313 157.828 39.9321 193.58 39.9321 237.681" fill="#DDE3E9"/>
<path d="M122.991 -86H115.005V169.529H122.991V-86Z" fill="#DDE3E9"/>
<g opacity="0.7">
<path fill-rule="evenodd" clip-rule="evenodd" d="M242.789 167.932C270.814 167.932 293.532 154.948 293.532 138.933C293.532 122.918 270.814 109.934 242.789 109.934C214.765 109.934 192.046 122.918 192.046 138.933C192.046 154.948 214.765 167.932 242.789 167.932Z" fill="#F2F2F2"/>
<path fill-rule="evenodd" clip-rule="evenodd" d="M301.889 158.911C301.889 123.32 275.43 94.4678 242.789 94.4678C210.149 94.4678 183.689 123.32 183.689 158.911" fill="#DDE3E9"/>
<path d="M247.581 -86H239.595V131.2H247.581V-86Z" fill="#DDE3E9"/>
</g>
<path d="M932.822 288.089L962.48 258.422C967.47 253.431 975.564 253.431 980.555 258.422L1059.51 337.401C1064.3 342.194 1066.99 348.691 1066.99 355.466V878.624" stroke="#CBCBCB" stroke-width="8"/>
<path d="M1108.52 877.026H1023.87C1021.22 877.026 1019.08 879.171 1019.08 881.818V883.415C1019.08 886.061 1021.22 888.206 1023.87 888.206H1108.52C1111.17 888.206 1113.32 886.061 1113.32 883.415V881.818C1113.32 879.171 1111.17 877.026 1108.52 877.026Z" fill="#AFB9C5"/>
<path d="M876.116 270.679C896.7 250.096 930.074 250.096 950.66 270.679C971.245 291.261 971.245 324.63 950.66 345.212L919.035 376.833L844.491 302.3L876.116 270.679Z" fill="#C5CFD6"/>
<path fill-rule="evenodd" clip-rule="evenodd" d="M875.683 346.047C896.268 366.629 916.242 380.028 920.297 375.973C924.351 371.92 910.951 351.948 890.365 331.367C869.781 310.784 849.807 297.387 845.751 301.44C841.697 305.495 855.099 325.466 875.683 346.047Z" fill="#F2F2F2"/>
<path fill-rule="evenodd" clip-rule="evenodd" d="M101.042 508.382C105.617 507.823 110.501 508.021 114.756 509.826C123.804 513.666 126.376 524.354 126.252 533.042C126.118 542.391 124.132 552.604 131.242 560.138C134.51 563.6 138.575 566.251 141.785 569.779C145.214 573.548 147.904 577.86 149.896 582.492C153.554 590.998 155.349 601.002 152.005 609.924C149.059 617.782 141.65 624.873 143.251 633.807C144.921 643.126 154.318 650.25 160.193 657.193C166.842 665.047 172.965 675.088 173.971 685.389C174.934 695.262 170.636 705.246 164.041 712.71C150.861 727.623 131.05 734.933 111.075 734.888C102.594 734.869 92.9923 734.485 85.6734 729.929C83.4114 728.52 82.218 726.939 80.8734 724.743C79.6678 722.773 78.0751 721.492 76.2317 720.098C72.1816 717.036 69.2566 712.911 67.39 708.292C60.1416 690.352 65.935 668.16 76.081 652.229C78.4853 648.455 80.4535 644.822 79.2855 640.324C78.0668 635.627 75.0712 631.392 72.4218 627.356C69.8035 623.365 66.8146 619.559 64.7683 615.247C62.6251 610.728 62.0216 605.996 62.4002 601.051C63.1119 591.761 67.1226 583.188 72.801 575.719C78.2701 568.522 84.6919 561.636 84.7063 552.208C84.7221 542.214 78.0401 533.325 80.8868 523.164C82.0655 518.957 84.433 514.641 88.2483 512.119C91.9072 509.699 96.7384 508.907 101.042 508.382Z" fill="#DDE3E9"/>
<path fill-rule="evenodd" clip-rule="evenodd" d="M98.0521 524.357C98.1378 523.015 99.73 522.211 100.984 522.56C102.634 523.022 102.602 524.563 102.558 525.936C102.425 530.157 103.036 534.26 104.051 538.357C106.16 546.872 110.058 554.717 113.147 562.897C116.232 571.069 117.681 579.508 115.871 588.156C114.164 596.311 111.483 604.253 109.737 612.417C108.197 619.614 106.559 627.203 108.904 634.38C111.159 641.289 116.146 646.915 119.737 653.158C127.171 666.083 130.469 680.422 130.91 695.177C131.115 702.028 130.931 708.943 129.341 715.664C128.426 719.534 127.196 724.762 123.88 727.434C122.351 728.667 119.735 729.092 118.448 727.268C117.24 725.558 118.3 722.908 118.683 721.084C120.345 713.188 120.679 705.12 120.281 697.104C119.896 689.34 118.979 681.587 116.534 674.171C114.266 667.289 110.819 661.107 106.763 655.086C102.63 648.952 98.3329 642.803 96.625 635.533C94.8899 628.15 96.2995 620.637 98.1845 613.395C100.178 605.735 102.789 598.294 105.488 590.841C108.119 583.579 109.051 576.707 107.599 569.107C104.73 554.091 97.0515 539.995 98.0521 524.357Z" fill="#C5CFD6"/>
<path fill-rule="evenodd" clip-rule="evenodd" d="M221.851 526.603C227.514 528.323 233.138 531.095 237.174 535.444C245.757 544.693 243.123 558.67 238.385 568.878C233.285 579.866 225.557 590.911 229.915 603.519C231.916 609.314 235.283 614.564 237.182 620.404C239.212 626.646 240.088 633.146 239.976 639.659C239.77 651.62 236.588 664.386 227.947 673.198C220.339 680.958 207.901 685.491 205.056 696.887C202.086 708.778 209.343 722.092 212.565 733.356C216.21 746.106 218.083 761.164 213.817 773.871C209.73 786.048 199.409 795.621 187.727 801.016C164.385 811.796 137.285 810.137 113.88 799.693C103.943 795.258 92.8834 789.812 86.7081 780.617C84.7996 777.774 84.2353 775.284 83.8194 771.988C83.4466 769.03 82.256 766.687 80.8305 764.079C77.6985 758.352 76.4491 751.951 76.7015 745.518C77.6834 720.532 96.2106 697.3 116.532 683.737C121.348 680.524 125.576 677.253 126.584 671.325C127.637 665.136 126.363 658.569 125.389 652.417C124.427 646.337 122.934 640.283 122.814 634.117C122.689 627.658 124.482 621.747 127.541 616.097C133.287 605.481 142.522 597.429 153.132 591.547C163.35 585.882 174.523 581.078 179.525 569.936C184.826 558.125 181.687 544.137 190.397 533.601C194.004 529.239 199.063 525.365 204.872 524.367C210.442 523.41 216.526 524.986 221.851 526.603Z" fill="#DDE3E9"/>
<path fill-rule="evenodd" clip-rule="evenodd" d="M210.285 546.133C211.089 544.589 213.373 544.469 214.655 545.541C216.342 546.953 215.497 548.761 214.727 550.364C212.36 555.294 210.926 560.472 209.967 565.854C207.974 577.044 208.423 588.377 207.749 599.683C207.076 610.979 204.35 621.732 197.703 631.023C191.436 639.787 184.141 647.788 177.822 656.541C172.254 664.255 166.363 672.384 165.345 682.112C164.363 691.475 167.248 700.753 168.176 710.028C170.099 729.23 166.444 747.938 159.231 765.643C155.881 773.864 152.044 781.957 146.665 789.081C143.568 793.186 139.391 798.734 134.114 800.158C131.68 800.816 128.399 799.951 127.85 797.116C127.333 794.455 129.96 791.874 131.364 789.915C137.442 781.436 142.059 772.057 145.793 762.354C149.41 752.957 152.398 743.297 153.424 733.232C154.377 723.894 153.585 714.767 151.995 705.512C150.376 696.081 148.572 686.547 150.383 677.044C152.221 667.39 157.805 659.232 163.802 651.643C170.145 643.616 177.097 636.174 184.157 628.762C191.036 621.54 195.726 613.892 198.01 604.131C202.521 584.843 200.925 564.127 210.285 546.133Z" fill="#C5CFD6"/>
<path fill-rule="evenodd" clip-rule="evenodd" d="M46.8103 597.541C56.2252 597.541 64.5024 602.53 70.206 609.612C76.8826 617.9 78.231 628.022 80.9421 637.902C82.2912 642.818 84.6114 647.698 88.6777 651.039C92.3759 654.077 97.071 654.684 101.498 656.169C110.345 659.135 117.489 666.28 120.31 674.997C123.752 685.632 120.106 696.356 120.734 707.134C121.31 717.031 131.07 723.206 138.923 727.95C146.666 732.63 153.642 737.009 155.974 746.123C158.447 755.79 159.277 766.58 155.851 776.129C150.148 792.029 133.458 799.031 117.331 800.115C102.695 801.101 84.2923 799.555 73.301 788.933C66.7238 782.576 64.342 773.685 64.6375 764.841C64.8211 759.341 65.9107 753.891 67.3196 748.576C68.318 744.811 69.6671 741.059 70.0514 737.167C71.073 726.81 61.5 724.822 53.3512 721.977C42.9964 718.365 35.7472 711.539 30.7063 702.029C26.0118 693.174 24.0422 683.236 26.8563 673.488C28.2936 668.509 30.9005 663.995 34.436 660.154C35.9924 658.462 38.1858 657.052 39.5906 655.276C40.9017 653.617 40.6163 651.467 40.1644 649.525C38.0751 640.551 31.5657 633.12 29.2376 624.161C27.1359 616.075 28.3782 606.012 35.772 600.796C38.9664 598.542 42.9058 597.567 46.8103 597.541Z" fill="#C5CFD6"/>
<path fill-rule="evenodd" clip-rule="evenodd" d="M59.6394 620.923C69.6182 631.552 72.3306 645.972 73.1267 659.947C73.5725 667.784 73.1085 676.051 75.4113 683.653C77.3817 690.159 82.0009 695.132 86.7625 699.834C96.347 709.295 107.036 718.916 109.84 732.61C111.484 740.647 110.374 748.948 112.647 756.895C114.714 764.12 118.353 771.218 122.779 777.318C126.342 782.233 130.985 785.994 134.881 790.572C136.069 791.971 137.772 794.029 137.281 796.003C136.707 798.313 133.763 799.045 131.674 798.682C126.803 797.836 122.703 793.185 119.518 789.804C114.861 784.861 110.904 779.545 107.688 773.58C104.117 766.957 101.242 759.928 100.013 752.497C98.7387 744.788 99.3731 736.753 96.4622 729.354C91.5638 716.905 79.6828 709.558 71.0928 699.855C60.3901 687.765 61.9863 672.718 63.0825 657.844C63.6847 649.67 64.2834 640.441 60.1528 632.978C58.5761 630.13 55.0606 627.474 54.3827 624.236C53.7617 621.27 57.1508 618.272 59.6394 620.923Z" fill="#AFB9C5"/>
<path fill-rule="evenodd" clip-rule="evenodd" d="M70.2817 795.576C70.2817 856.357 80.2022 888.206 132.576 888.206C184.949 888.206 194.87 856.357 194.87 795.576H70.2817Z" fill="#89C5CC"/>
<path d="M343.42 707.738H289.112C287.347 707.738 285.917 709.168 285.917 710.932V718.918C285.917 720.682 287.347 722.112 289.112 722.112H343.42C345.184 722.112 346.614 720.682 346.614 718.918V710.932C346.614 709.168 345.184 707.738 343.42 707.738Z" fill="#AFB9C5"/>
<path fill-rule="evenodd" clip-rule="evenodd" d="M313.417 591.153H316.265H317.863H320.711C321.538 615.778 325.381 639.201 332.238 661.424H342.621C356.294 661.424 367.379 672.508 367.379 686.178C367.379 699.849 356.294 710.933 342.621 710.933H289.91C276.237 710.933 265.152 699.849 265.152 686.178C265.152 672.508 276.237 661.424 289.91 661.424H301.89C312.176 628.09 313.417 591.153 313.417 591.153Z" fill="#DDE3E9"/>
<path fill-rule="evenodd" clip-rule="evenodd" d="M259.756 480.443C259.756 480.443 287.212 477.762 314.668 477.762C342.124 477.762 369.58 480.443 369.58 480.443L376.963 607.336C376.963 607.336 345.815 610.318 314.668 610.318C283.521 610.318 252.374 607.336 252.374 607.336L259.756 480.443Z" fill="#C5CFD6"/>
<path fill-rule="evenodd" clip-rule="evenodd" d="M215.636 888.205V757.247V722.111H249.179H381.755H415.298V757.247V888.205H381.755V757.247H249.179V888.205H215.636Z" fill="#F2F2F2"/>
<path fill-rule="evenodd" clip-rule="evenodd" d="M883.914 438.168C898.023 471.688 922.007 494.98 934.71 529.834C942.243 550.503 945.383 572.979 945.573 595.995C945.677 608.497 945.458 621.008 945.401 633.51C945.343 645.702 945.012 657.816 943.977 669.931C942.936 682.109 941.772 694.143 941.259 706.395C940.858 715.942 940.676 727.048 937.44 735.757C934.865 742.684 928.322 743.698 926.588 735.297C925.623 730.629 925.744 725.415 925.851 720.615C925.987 714.459 926.345 708.312 926.529 702.155C927.262 677.452 926.31 652.745 926.808 628.032C927.294 603.886 930.397 579.768 926.963 555.783C924.126 535.978 916.922 518.969 908.642 502.665C900.675 486.978 892.003 471.672 886.62 453.828C885.074 448.705 883.879 443.395 883.306 437.883C883.556 437.767 883.759 437.861 883.914 438.168Z" fill="#C1DEE2"/>
<path fill-rule="evenodd" clip-rule="evenodd" d="M880.069 504.3C882.863 506.317 884.424 509.268 886.312 512.18C888.66 515.799 891.421 519.066 893.769 522.688C898.664 530.241 902.965 538.257 907.428 546.114C915.9 561.027 922.332 576.924 925.517 594.179C928.821 612.061 929.71 630.517 931.095 648.666C932.565 667.901 934.044 687.276 934.239 706.586C934.326 715.238 934.794 724.421 933.755 733.011C933.108 738.358 930.694 742.916 925.252 742.873C913.694 742.781 908.267 729.98 906 719.483C902.663 704.023 901.997 687.604 902.526 671.795C903.163 652.732 906.473 633.957 907.904 614.968C909.421 594.866 908.565 575.118 901.652 556.191C898.16 546.627 894.108 537.29 890.468 527.789C888.918 523.744 887.649 519.588 885.556 515.821C883.227 511.632 880.338 507.828 878.514 503.314C879.031 503.643 879.55 503.971 880.069 504.3Z" fill="#89C5CC"/>
<path fill-rule="evenodd" clip-rule="evenodd" d="M1013.22 464.216C1013.57 463.94 1013.93 463.665 1014.28 463.389C1013.26 467.69 1011.42 471.182 1010.01 475.113C1008.74 478.647 1008.1 482.646 1007.25 486.509C1005.24 495.582 1002.93 504.451 1001.04 513.6C997.289 531.706 997.998 551.211 1000.45 571.299C1002.78 590.275 1006.44 609.221 1008.19 628.192C1009.64 643.925 1010.27 660.15 1008.88 675.16C1007.94 685.354 1004.86 697.527 996.471 696.499C992.519 696.015 990.459 691.259 989.628 685.891C988.294 677.27 988.015 668.205 987.496 659.632C986.335 640.496 986.104 621.419 985.874 602.48C985.657 584.612 985.062 566.389 986.255 548.97C987.406 532.163 991.008 517.018 996.16 503.044C998.872 495.681 1001.46 488.146 1004.51 481.129C1005.97 477.764 1007.75 474.79 1009.22 471.427C1010.39 468.721 1011.33 465.946 1013.22 464.216Z" fill="#C1DEE2"/>
<path fill-rule="evenodd" clip-rule="evenodd" d="M883.639 559.694C885.168 557.128 888.532 565.589 889.045 566.654C888.828 566.124 888.61 565.595 888.391 565.068C891.425 570.112 894.201 575.363 895.926 581.146C897.633 586.871 899.1 592.713 900.702 598.479C903.71 609.297 907.588 619.809 910.311 630.725C912.966 641.361 913.635 651.819 912.991 662.821C912.324 674.256 911.915 685.868 912.694 697.297C913.066 702.756 914.841 707.841 916.057 713.095C917.274 718.356 918.232 723.687 919.671 728.882C920.002 728.205 920.043 730.468 920.043 730.639C920.034 731.937 919.853 733.025 919.435 734.256C918.363 737.421 916.355 740.109 913.3 740.983C907.779 742.559 902.652 737.538 900.873 732.236C898.319 724.627 896.91 716.22 895.693 708.224C894.578 700.892 894.313 693.515 894.645 686.082C895.298 671.423 897.951 656.955 898.668 642.3C899.45 626.346 896.288 611.354 893.642 595.824C892.367 588.341 891.148 580.929 888.666 573.799C887.662 570.912 886.352 568.365 884.98 565.698C884.197 564.182 882.617 561.477 883.639 559.694Z" fill="#C1DEE2"/>
<path fill-rule="evenodd" clip-rule="evenodd" d="M928.433 534.772C927.8 553.05 926.707 571.19 924.27 589.275C921.783 607.73 918.925 626.124 916.533 644.595C914.202 662.577 911.762 680.856 912.086 699.09C912.325 712.518 910.099 735.238 925.016 741.866C940.125 748.578 943.366 719.913 944.358 710.452C946.258 692.299 945.643 673.956 944.72 655.704C943.773 636.971 942.192 618.335 940.233 599.672C938.056 578.94 936.349 558.116 934.977 537.326C934.299 527.042 934.132 516.776 934.319 506.49C934.496 496.784 934.127 486.977 930.675 477.762C930.495 477.893 930.316 478.024 930.135 478.155" fill="#69A1AC"/>
<path fill-rule="evenodd" clip-rule="evenodd" d="M1006.43 592.678C1003.71 596.636 1000.97 600.555 998.408 604.747C993.816 612.249 989.665 620.59 988.416 631.314C985.802 653.758 987.898 678 988.404 701.131C988.508 705.857 987.911 710.442 989.773 714.941C991.463 719.02 994.623 722.128 997.634 722.112C1004.08 722.075 1003.09 706.293 1003.11 699.347C1003.13 687.173 1001.76 674.874 1001.88 662.711C1001.99 650.659 1002.73 638.576 1004.47 627.132C1006.24 615.548 1008.84 604.423 1012.25 594.044C1012.73 592.603 1016.13 581.47 1012.92 583.39" fill="#89C5CC"/>
<path fill-rule="evenodd" clip-rule="evenodd" d="M977.965 472.971C973.727 472.971 973.753 494.093 973.627 496.807C973.165 506.597 973.274 516.392 972.983 526.183C972.345 547.555 971.563 569.114 968.351 590.236C966.622 601.609 964.619 612.931 962.463 624.215C960.302 635.534 957.4 646.838 955.978 658.3C954.612 669.318 955.384 680.552 955.571 691.624C955.758 702.764 956.095 713.925 957.555 724.967C957.914 727.692 958.337 730.409 958.789 733.117C959.165 735.375 958.946 738.175 959.583 740.32C960.604 743.755 964.98 744.88 967.927 744.343C975.901 742.888 980.995 732.876 983.72 725.562C987.199 716.22 989.045 706.089 990.866 696.246C992.93 685.094 994.139 673.772 994.706 662.419C995.861 639.344 994.38 616.246 992.727 593.245C991.807 580.454 990.745 567.719 989.12 555.007C987.501 542.349 985.424 529.746 984.073 517.051C983.09 507.827 982.122 498.588 981.487 489.326C981.333 487.119 981.206 472.971 977.965 472.971Z" fill="#69A1AC"/>
<path fill-rule="evenodd" clip-rule="evenodd" d="M972.66 626.51C971.968 604.333 963.054 506.922 961.025 480.104C960.517 473.392 955.634 445.445 955 437.835C953.283 439.986 953.428 473.464 953.448 481.157C953.468 488.767 952.524 496.249 952.039 503.817C951.544 511.541 940.125 611.277 938.644 618.697C935.695 633.46 933.723 648.608 932.2 663.704C930.718 678.414 928.413 693.936 930.397 708.725C930.852 712.13 931.574 715.48 932.75 718.608C934.018 721.987 934.889 725.112 935.908 728.648C937.546 734.343 940.513 739.342 945.07 741.695C954.412 746.516 959.429 735.602 961.974 726.099C966.034 710.924 968.643 695.501 969.865 679.564C971.216 661.931 973.212 644.263 972.66 626.51Z" fill="#89C5CC"/>
<path d="M1015.88 691.768H876.916C875.152 691.768 873.722 693.198 873.722 694.962V833.906C873.722 835.67 875.152 837.1 876.916 837.1H1015.88C1017.65 837.1 1019.08 835.67 1019.08 833.906V694.962C1019.08 693.198 1017.65 691.768 1015.88 691.768Z" fill="white"/>
<path d="M870.527 707.738H860.943C859.179 707.738 857.749 709.168 857.749 710.932V885.012C857.749 886.776 859.179 888.206 860.943 888.206H870.527C872.291 888.206 873.722 886.776 873.722 885.012V710.932C873.722 709.168 872.291 707.738 870.527 707.738Z" fill="#C5CFD6"/>
<path d="M950.392 707.738H940.808C939.044 707.738 937.613 709.168 937.613 710.932V885.012C937.613 886.776 939.044 888.206 940.808 888.206H950.392C952.156 888.206 953.586 886.776 953.586 885.012V710.932C953.586 709.168 952.156 707.738 950.392 707.738Z" fill="#C5CFD6"/>
<path d="M1031.85 707.738H1022.27C1020.51 707.738 1019.08 709.168 1019.08 710.932V885.012C1019.08 886.776 1020.51 888.206 1022.27 888.206H1031.85C1033.62 888.206 1035.05 886.776 1035.05 885.012V710.932C1035.05 709.168 1033.62 707.738 1031.85 707.738Z" fill="#C5CFD6"/>
</svg>
