<svg width="50" height="50" viewBox="0 0 50 50" fill="none" xmlns="http://www.w3.org/2000/svg">
<path fill-rule="evenodd" clip-rule="evenodd" d="M12.5 0C19.4035 0 25 5.59644 25 12.5V0H37.5C44.4035 0 50 5.59644 50 12.5C50 19.4035 44.4035 25 37.5 25C44.4035 25 50 30.5965 50 37.5C50 40.9279 48.6201 44.0335 46.3856 46.2918L46.3389 46.3389L46.2974 46.3801C44.0386 48.6179 40.9308 50 37.5 50C34.0926 50 31.0036 48.6366 28.7488 46.4256C28.7195 46.3969 28.6903 46.3679 28.6611 46.3389C28.6337 46.3115 28.6065 46.284 28.5794 46.2564C26.3655 44.0011 25 40.91 25 37.5C25 44.4035 19.4035 50 12.5 50C5.59644 50 0 44.4035 0 37.5V25H12.5C5.59644 25 0 19.4035 0 12.5C0 5.59644 5.59644 0 12.5 0ZM22.5 12.5C22.5 18.0229 18.0229 22.5 12.5 22.5V2.5C18.0229 2.5 22.5 6.97715 22.5 12.5ZM47.5 37.5C47.5 31.9771 43.0229 27.5 37.5 27.5C31.9771 27.5 27.5 31.9771 27.5 37.5H47.5ZM2.5 27.5V37.5C2.5 43.0229 6.97715 47.5 12.5 47.5C18.0229 47.5 22.5 43.0229 22.5 37.5V27.5H2.5ZM27.5 22.5V2.5H37.5C43.0229 2.5 47.5 6.97715 47.5 12.5C47.5 18.0229 43.0229 22.5 37.5 22.5H27.5Z" fill="#5340A9"/>
</svg>
